<?xml version="1.0" encoding="UTF-8"?>
<svg id="Layer_1" data-name="Layer 1" xmlns="http://www.w3.org/2000/svg" viewBox="0 0 1533.7 455.91">
  <defs>
    <style>
      .cls-1 {
        fill: #FD7702;
      }

      .cls-2 {
        fill: #1faab2;
      }
    </style>
  </defs>
  <g>
    <path class="cls-2" d="m786.31,153.94h22.78v-5s3.24-21.87-22.78-24.24v29.24Z"/>
    <path class="cls-2" d="m754.12,153.94h22.77v-29.24c-26.02,2.37-22.77,24.24-22.77,24.24v5Z"/>
    <rect class="cls-2" x="786.31" y="163.36" width="22.78" height="22.14"/>
    <rect class="cls-2" x="754.12" y="163.36" width="22.77" height="22.14"/>
  </g>
  <g>
    <path class="cls-2" d="m475.67,111.4h15.49v-3.4s2.21-14.87-15.49-16.48v19.88Z"/>
    <path class="cls-2" d="m453.78,111.4h15.48v-19.88c-17.69,1.61-15.48,16.48-15.48,16.48v3.4Z"/>
    <rect class="cls-2" x="475.67" y="117.81" width="15.49" height="15.05"/>
    <rect class="cls-2" x="453.78" y="117.81" width="15.48" height="15.05"/>
  </g>
  <g>
    <path class="cls-2" d="m1088.81,111.4h-15.49v-3.4s-2.21-14.87,15.49-16.48v19.88Z"/>
    <path class="cls-2" d="m1110.7,111.4h-15.48v-19.88c17.69,1.61,15.48,16.48,15.48,16.48v3.4Z"/>
    <rect class="cls-2" x="1073.32" y="117.81" width="15.49" height="15.05"/>
    <rect class="cls-2" x="1095.22" y="117.81" width="15.48" height="15.05"/>
  </g>
  <polygon class="cls-2" points="586.78 51.36 558.97 39.87 558.97 67.93 558.97 104.28 547.84 94.46 547.84 63.8 472.2 35.71 351.13 164.17 472.38 53.23 578.36 152.72 642.98 99.13 586.78 78.26 586.78 51.36"/>
  <polygon class="cls-2" points="1092.28 35.71 1016.64 63.8 1016.64 94.46 1005.51 104.28 1005.51 39.87 977.7 51.36 977.7 78.26 921.5 99.13 986.12 152.72 1092.1 53.23 1213.35 164.17 1092.28 35.71"/>
  <polygon class="cls-2" points="781.6 51.89 611.73 186.18 781.6 66.87 951.47 186.18 781.6 51.89"/>
  <polygon class="cls-1" points="1522.68 161.99 1509.52 161.99 963.38 161.99 769.9 0 576.41 161.99 24.19 161.99 11.02 161.99 0 161.99 0 431.73 0 455.91 24.19 455.91 524.78 455.91 523.35 431.73 24.19 431.73 24.19 186.18 585.72 186.18 769.9 36.16 954.08 186.18 1509.52 186.18 1509.52 431.73 1173.96 431.73 1093.8 431.73 523.35 431.73 523.35 455.91 1093.8 455.91 1173.96 455.91 1509.52 455.91 1533.7 455.91 1533.7 431.73 1533.7 161.99 1522.68 161.99"/>
</svg>